<svg
   class="{{ with .class }}{{ . }} {{ end }} icon" 
   width="24" height="24"
   height="24"
   width="24"
   viewBox="-35.20005 -41.33325 6.101342 7.439985"
   version="1.1"
   id="svg423"
   xmlns="http://www.w3.org/2000/svg"
   xmlns:svg="http://www.w3.org/2000/svg">
  <defs
     id="defs427" />
  <path
     d="m -32.908004,-36.402856 v -2.182405 l 1.91814,1.091234 z m 4.266672,-2.869113 c -0.08441,-0.317805 -0.333096,-0.568089 -0.648836,-0.653028 -0.572307,-0.154368 -2.867267,-0.154368 -2.867267,-0.154368 0,0 -2.294928,0 -2.867238,0.154368 -0.31574,0.08493 -0.56443,0.335223 -0.648837,0.653028 -0.153366,0.576028 -0.153366,1.77791 -0.153366,1.77791 0,0 0,1.201817 0.153366,1.777879 0.08441,0.317836 0.333066,0.568088 0.648837,0.65309 0.57231,0.154305 2.867238,0.154305 2.867238,0.154305 0,0 2.29496,0 2.867267,-0.154305 0.315741,-0.08501 0.564431,-0.335254 0.648836,-0.65309 0.153366,-0.576062 0.153366,-1.777911 0.153366,-1.777911 0,0 0,-1.20185 -0.153366,-1.777878"
     fill="#ffffff"
     id="path421"
     style="stroke-width:0.0312738" />
</svg>
